<svg width="243" height="84" viewBox="0 0 243 84" fill="none" xmlns="http://www.w3.org/2000/svg">
<path d="M114.443 47.4C114.477 47.7667 114.493 48.4833 114.493 49.55C114.493 54.7833 112.81 59.0833 109.443 62.45C106.077 65.8167 101.727 67.5 96.3934 67.5C91.06 67.5 86.6767 65.8167 83.2434 62.45C79.81 59.05 78.0934 54.75 78.0934 49.55C78.0934 44.35 79.81 40.0667 83.2434 36.7C86.6767 33.3333 91.06 31.65 96.3934 31.65C100.727 31.65 104.527 32.8833 107.793 35.35C111.06 37.8167 113.077 40.9667 113.843 44.8H104.993C104.293 43.0333 103.193 41.6333 101.693 40.6C100.193 39.5333 98.4434 39 96.4434 39C93.61 39 91.2767 39.9833 89.4434 41.95C87.6434 43.9167 86.7434 46.4333 86.7434 49.5C86.7434 52.5667 87.6434 55.1 89.4434 57.1C91.2767 59.0667 93.61 60.05 96.4434 60.05C98.4434 60.05 100.227 59.55 101.793 58.55C103.36 57.55 104.443 56.2167 105.043 54.55H96.4434V47.4H114.443ZM144.691 54.7C144.691 55.2333 144.674 55.75 144.641 56.25H126.141C126.407 57.85 126.991 59.1167 127.891 60.05C128.791 60.9833 129.924 61.45 131.291 61.45C132.391 61.45 133.357 61.1667 134.191 60.6C135.057 60.0333 135.691 59.25 136.091 58.25H144.241C143.507 60.95 141.924 63.1667 139.491 64.9C137.057 66.6333 134.291 67.5 131.191 67.5C127.257 67.5 124.007 66.2833 121.441 63.85C118.907 61.4167 117.641 58.3167 117.641 54.55C117.641 50.8167 118.907 47.7333 121.441 45.3C124.007 42.8667 127.257 41.65 131.191 41.65C135.124 41.65 138.357 42.8833 140.891 45.35C143.424 47.7833 144.691 50.9 144.691 54.7ZM131.441 47.7C128.974 47.7 127.307 48.9833 126.441 51.55H136.441C136.107 50.35 135.491 49.4167 134.591 48.75C133.691 48.05 132.641 47.7 131.441 47.7ZM174.72 54.7C174.72 55.2333 174.703 55.75 174.67 56.25H156.17C156.437 57.85 157.02 59.1167 157.92 60.05C158.82 60.9833 159.953 61.45 161.32 61.45C162.42 61.45 163.387 61.1667 164.22 60.6C165.087 60.0333 165.72 59.25 166.12 58.25H174.27C173.537 60.95 171.953 63.1667 169.52 64.9C167.087 66.6333 164.32 67.5 161.22 67.5C157.287 67.5 154.037 66.2833 151.47 63.85C148.937 61.4167 147.67 58.3167 147.67 54.55C147.67 50.8167 148.937 47.7333 151.47 45.3C154.037 42.8667 157.287 41.65 161.22 41.65C165.153 41.65 168.387 42.8833 170.92 45.35C173.453 47.7833 174.72 50.9 174.72 54.7ZM161.47 47.7C159.003 47.7 157.337 48.9833 156.47 51.55H166.47C166.137 50.35 165.52 49.4167 164.62 48.75C163.72 48.05 162.67 47.7 161.47 47.7ZM204.199 42.15L194.799 53.95L204.199 67H194.849L186.899 55.35V67H178.949V32.15H186.899V52.7L194.849 42.15H204.199ZM241.71 67H231.51L223.76 54.95L215.96 67H205.81L218.11 49.3L206.21 32.15H216.36L223.76 43.85L231.11 32.15H241.31L229.41 49.3L241.71 67Z" fill="#353CAC"/>
<path d="M114.443 47.4L114.941 47.3547L114.9 46.9H114.443V47.4ZM109.443 62.45L109.09 62.0964L109.09 62.0964L109.443 62.45ZM83.2434 62.45L82.8915 62.8053L82.8933 62.807L83.2434 62.45ZM83.2434 36.7L83.5934 37.057L83.5934 37.057L83.2434 36.7ZM107.793 35.35L107.492 35.749L107.793 35.35ZM113.843 44.8V45.3H114.453L114.334 44.7019L113.843 44.8ZM104.993 44.8L104.529 44.9842L104.654 45.3H104.993V44.8ZM101.693 40.6L101.404 41.0075L101.41 41.0118L101.693 40.6ZM89.4434 41.95L89.0776 41.609L89.0745 41.6124L89.4434 41.95ZM89.4434 57.1L89.0717 57.4345L89.0776 57.4409L89.4434 57.1ZM101.793 58.55L102.062 58.9715L102.062 58.9715L101.793 58.55ZM105.043 54.55L105.514 54.7194L105.755 54.05H105.043V54.55ZM96.4434 54.55H95.9434V55.05H96.4434V54.55ZM96.4434 47.4V46.9H95.9434V47.4H96.4434ZM113.945 47.4453C113.976 47.7858 113.993 48.4801 113.993 49.55H114.993C114.993 48.4865 114.977 47.7476 114.941 47.3547L113.945 47.4453ZM113.993 49.55C113.993 54.6652 112.353 58.8333 109.09 62.0964L109.797 62.8036C113.267 59.3334 114.993 54.9015 114.993 49.55H113.993ZM109.09 62.0964C105.829 65.3577 101.612 67 96.3934 67V68C101.842 68 106.325 66.2756 109.797 62.8036L109.09 62.0964ZM96.3934 67C91.1753 67 86.9227 65.3576 83.5934 62.093L82.8933 62.807C86.4307 66.2757 90.9447 68 96.3934 68V67ZM83.5952 62.0947C80.2644 58.7963 78.5934 54.6278 78.5934 49.55H77.5934C77.5934 54.8722 79.3557 59.3037 82.8915 62.8053L83.5952 62.0947ZM78.5934 49.55C78.5934 44.4722 80.2643 40.3215 83.5934 37.057L82.8933 36.343C79.3557 39.8119 77.5934 44.2278 77.5934 49.55H78.5934ZM83.5934 37.057C86.9227 33.7924 91.1753 32.15 96.3934 32.15V31.15C90.9447 31.15 86.4307 32.8743 82.8933 36.343L83.5934 37.057ZM96.3934 32.15C100.625 32.15 104.317 33.3519 107.492 35.749L108.095 34.951C104.736 32.4148 100.829 31.15 96.3934 31.15V32.15ZM107.492 35.749C110.666 38.1457 112.612 41.1908 113.353 44.8981L114.334 44.7019C113.542 40.7425 111.454 37.4876 108.095 34.951L107.492 35.749ZM113.843 44.3H104.993V45.3H113.843V44.3ZM105.458 44.6158C104.723 42.7612 103.562 41.2803 101.977 40.1882L101.41 41.0118C102.824 41.9863 103.863 43.3054 104.529 44.9842L105.458 44.6158ZM101.983 40.1925C100.391 39.0604 98.5377 38.5 96.4434 38.5V39.5C98.349 39.5 99.9956 40.0063 101.404 41.0075L101.983 40.1925ZM96.4434 38.5C93.4797 38.5 91.0111 39.535 89.0776 41.6091L89.8091 42.2909C91.5423 40.4317 93.7403 39.5 96.4434 39.5V38.5ZM89.0745 41.6124C87.1775 43.6851 86.2434 46.3285 86.2434 49.5H87.2434C87.2434 46.5382 88.1092 44.1482 89.8122 42.2876L89.0745 41.6124ZM86.2434 49.5C86.2434 52.6717 87.1775 55.3298 89.0717 57.4345L89.815 56.7655C88.1092 54.8702 87.2434 52.4616 87.2434 49.5H86.2434ZM89.0776 57.4409C91.0111 59.515 93.4797 60.55 96.4434 60.55V59.55C93.7403 59.55 91.5423 58.6183 89.8091 56.7591L89.0776 57.4409ZM96.4434 60.55C98.5311 60.55 100.409 60.0267 102.062 58.9715L101.524 58.1285C100.044 59.0733 98.3556 59.55 96.4434 59.55V60.55ZM102.062 58.9715C103.717 57.9151 104.874 56.4954 105.514 54.7194L104.573 54.3806C104.012 55.938 103.003 57.1849 101.524 58.1285L102.062 58.9715ZM105.043 54.05H96.4434V55.05H105.043V54.05ZM96.9434 54.55V47.4H95.9434V54.55H96.9434ZM96.4434 47.9H114.443V46.9H96.4434V47.9ZM144.641 56.25V56.75H145.108L145.14 56.2833L144.641 56.25ZM126.141 56.25V55.75H125.55L125.647 56.3322L126.141 56.25ZM127.891 60.05L128.251 59.7029L128.251 59.7029L127.891 60.05ZM134.191 60.6L133.917 60.1814L133.909 60.1865L134.191 60.6ZM136.091 58.25V57.75H135.752L135.626 58.0643L136.091 58.25ZM144.241 58.25L144.723 58.3811L144.895 57.75H144.241V58.25ZM139.491 64.9L139.201 64.4928L139.201 64.4928L139.491 64.9ZM121.441 63.85L121.094 64.2106L121.097 64.2129L121.441 63.85ZM121.441 45.3L121.097 44.9371L121.094 44.9394L121.441 45.3ZM140.891 45.35L140.542 45.7082L140.544 45.7106L140.891 45.35ZM126.441 51.55L125.967 51.39L125.744 52.05H126.441V51.55ZM136.441 51.55V52.05H137.098L136.922 51.4162L136.441 51.55ZM134.591 48.75L134.284 49.1448L134.293 49.1518L134.591 48.75ZM144.191 54.7C144.191 55.2229 144.174 55.7285 144.142 56.2167L145.14 56.2833C145.174 55.7715 145.191 55.2437 145.191 54.7H144.191ZM144.641 55.75H126.141V56.75H144.641V55.75ZM125.647 56.3322C125.927 58.0068 126.545 59.3745 127.531 60.3971L128.251 59.7029C127.437 58.8588 126.888 57.6932 126.634 56.1678L125.647 56.3322ZM127.531 60.3971C128.53 61.4339 129.796 61.95 131.291 61.95V60.95C130.052 60.95 129.051 60.5328 128.251 59.7029L127.531 60.3971ZM131.291 61.95C132.481 61.95 133.548 61.6417 134.472 61.0135L133.909 60.1865C133.167 60.6916 132.3 60.95 131.291 60.95V61.95ZM134.464 61.0185C135.42 60.3933 136.118 59.527 136.555 58.4357L135.626 58.0643C135.263 58.973 134.694 59.6734 133.917 60.1815L134.464 61.0185ZM136.091 58.75H144.241V57.75H136.091V58.75ZM143.758 58.1189C143.057 60.6995 141.547 62.8216 139.201 64.4928L139.781 65.3072C142.301 63.5117 143.957 61.2005 144.723 58.3811L143.758 58.1189ZM139.201 64.4928C136.855 66.1634 134.191 67 131.191 67V68C134.39 68 137.259 67.1033 139.781 65.3072L139.201 64.4928ZM131.191 67C127.37 67 124.248 65.8222 121.785 63.4871L121.097 64.2129C123.767 66.7444 127.145 68 131.191 68V67ZM121.787 63.4894C119.359 61.1577 118.141 58.1915 118.141 54.55H117.141C117.141 58.4418 118.455 61.6757 121.094 64.2106L121.787 63.4894ZM118.141 54.55C118.141 50.9432 119.358 47.9932 121.787 45.6606L121.094 44.9394C118.456 47.4734 117.141 50.6901 117.141 54.55H118.141ZM121.785 45.6629C124.248 43.3277 127.37 42.15 131.191 42.15V41.15C127.145 41.15 123.767 42.4056 121.097 44.9371L121.785 45.6629ZM131.191 42.15C135.01 42.15 138.113 43.343 140.542 45.7082L141.239 44.9918C138.602 42.4236 135.238 41.15 131.191 41.15V42.15ZM140.544 45.7106C142.971 48.0414 144.191 51.0237 144.191 54.7H145.191C145.191 50.7763 143.877 47.5253 141.237 44.9894L140.544 45.7106ZM131.441 47.2C130.117 47.2 128.971 47.5462 128.036 48.2663C127.104 48.9835 126.423 50.0398 125.967 51.39L126.914 51.71C127.325 50.4936 127.91 49.6248 128.646 49.0587C129.377 48.4955 130.298 48.2 131.441 48.2V47.2ZM126.441 52.05H136.441V51.05H126.441V52.05ZM136.922 51.4162C136.563 50.1215 135.888 49.0886 134.888 48.3482L134.293 49.1518C135.093 49.7447 135.652 50.5785 135.959 51.6838L136.922 51.4162ZM134.898 48.3553C133.905 47.5833 132.746 47.2 131.441 47.2V48.2C132.536 48.2 133.476 48.5167 134.284 49.1447L134.898 48.3553ZM174.67 56.25V56.75H175.138L175.169 56.2833L174.67 56.25ZM156.17 56.25V55.75H155.58L155.677 56.3322L156.17 56.25ZM157.92 60.05L158.28 59.7029L158.28 59.7029L157.92 60.05ZM164.22 60.6L163.946 60.1814L163.939 60.1865L164.22 60.6ZM166.12 58.25V57.75H165.781L165.656 58.0643L166.12 58.25ZM174.27 58.25L174.752 58.3811L174.924 57.75H174.27V58.25ZM169.52 64.9L169.23 64.4928L169.23 64.4928L169.52 64.9ZM151.47 63.85L151.124 64.2106L151.126 64.2129L151.47 63.85ZM151.47 45.3L151.126 44.9371L151.124 44.9394L151.47 45.3ZM170.92 45.35L170.571 45.7082L170.574 45.7106L170.92 45.35ZM156.47 51.55L155.996 51.39L155.773 52.05H156.47V51.55ZM166.47 51.55V52.05H167.128L166.952 51.4162L166.47 51.55ZM164.62 48.75L164.313 49.1448L164.322 49.1518L164.62 48.75ZM174.22 54.7C174.22 55.2229 174.204 55.7285 174.171 56.2167L175.169 56.2833C175.203 55.7715 175.22 55.2437 175.22 54.7H174.22ZM174.67 55.75H156.17V56.75H174.67V55.75ZM155.677 56.3322C155.956 58.0068 156.574 59.3745 157.56 60.3971L158.28 59.7029C157.466 58.8588 156.917 57.6932 156.663 56.1678L155.677 56.3322ZM157.56 60.3971C158.56 61.4339 159.826 61.95 161.32 61.95V60.95C160.081 60.95 159.08 60.5328 158.28 59.7029L157.56 60.3971ZM161.32 61.95C162.511 61.95 163.577 61.6417 164.501 61.0135L163.939 60.1865C163.196 60.6916 162.329 60.95 161.32 60.95V61.95ZM164.494 61.0185C165.45 60.3933 166.148 59.527 166.584 58.4357L165.656 58.0643C165.292 58.973 164.723 59.6734 163.946 60.1815L164.494 61.0185ZM166.12 58.75H174.27V57.75H166.12V58.75ZM173.787 58.1189C173.087 60.6995 171.576 62.8216 169.23 64.4928L169.81 65.3072C172.331 63.5117 173.987 61.2005 174.752 58.3811L173.787 58.1189ZM169.23 64.4928C166.885 66.1634 164.22 67 161.22 67V68C164.42 68 167.289 67.1033 169.81 65.3072L169.23 64.4928ZM161.22 67C157.399 67 154.277 65.8222 151.814 63.4871L151.126 64.2129C153.796 66.7444 157.174 68 161.22 68V67ZM151.816 63.4894C149.389 61.1577 148.17 58.1915 148.17 54.55H147.17C147.17 58.4418 148.484 61.6757 151.124 64.2106L151.816 63.4894ZM148.17 54.55C148.17 50.9432 149.388 47.9932 151.816 45.6606L151.124 44.9394C148.485 47.4734 147.17 50.6901 147.17 54.55H148.17ZM151.814 45.6629C154.277 43.3277 157.399 42.15 161.22 42.15V41.15C157.174 41.15 153.796 42.4056 151.126 44.9371L151.814 45.6629ZM161.22 42.15C165.039 42.15 168.142 43.343 170.571 45.7082L171.269 44.9918C168.631 42.4236 165.268 41.15 161.22 41.15V42.15ZM170.574 45.7106C173 48.0414 174.22 51.0237 174.22 54.7H175.22C175.22 50.7763 173.906 47.5253 171.266 44.9894L170.574 45.7106ZM161.47 47.2C160.146 47.2 159 47.5462 158.065 48.2663C157.133 48.9835 156.452 50.0398 155.996 51.39L156.944 51.71C157.354 50.4936 157.94 49.6248 158.675 49.0587C159.406 48.4955 160.327 48.2 161.47 48.2V47.2ZM156.47 52.05H166.47V51.05H156.47V52.05ZM166.952 51.4162C166.592 50.1215 165.917 49.0886 164.918 48.3482L164.322 49.1518C165.123 49.7447 165.681 50.5785 165.988 51.6838L166.952 51.4162ZM164.927 48.3553C163.934 47.5833 162.775 47.2 161.47 47.2V48.2C162.565 48.2 163.506 48.5167 164.313 49.1447L164.927 48.3553ZM204.199 42.15L204.59 42.4615L205.237 41.65H204.199V42.15ZM194.799 53.95L194.408 53.6385L194.172 53.9348L194.394 54.2422L194.799 53.95ZM204.199 67V67.5H205.176L204.605 66.7078L204.199 67ZM194.849 67L194.436 67.2818L194.585 67.5H194.849V67ZM186.899 55.35L187.312 55.0682L186.399 53.7302V55.35H186.899ZM186.899 67V67.5H187.399V67H186.899ZM178.949 67H178.449V67.5H178.949V67ZM178.949 32.15V31.65H178.449V32.15H178.949ZM186.899 32.15H187.399V31.65H186.899V32.15ZM186.899 52.7H186.399V54.1943L187.299 53.0009L186.899 52.7ZM194.849 42.15V41.65H194.6L194.45 41.8491L194.849 42.15ZM203.808 41.8385L194.408 53.6385L195.19 54.2615L204.59 42.4615L203.808 41.8385ZM194.394 54.2422L203.794 67.2922L204.605 66.7078L195.205 53.6578L194.394 54.2422ZM204.199 66.5H194.849V67.5H204.199V66.5ZM195.262 66.7182L187.312 55.0682L186.486 55.6318L194.436 67.2818L195.262 66.7182ZM186.399 55.35V67H187.399V55.35H186.399ZM186.899 66.5H178.949V67.5H186.899V66.5ZM179.449 67V32.15H178.449V67H179.449ZM178.949 32.65H186.899V31.65H178.949V32.65ZM186.399 32.15V52.7H187.399V32.15H186.399ZM187.299 53.0009L195.249 42.4509L194.45 41.8491L186.5 52.3991L187.299 53.0009ZM194.849 42.65H204.199V41.65H194.849V42.65ZM241.71 67V67.5H242.666L242.121 66.7147L241.71 67ZM231.51 67L231.09 67.2705L231.237 67.5H231.51V67ZM223.76 54.95L224.181 54.6795L223.762 54.0278L223.34 54.6783L223.76 54.95ZM215.96 67V67.5H216.232L216.38 67.2717L215.96 67ZM205.81 67L205.4 66.7147L204.854 67.5H205.81V67ZM218.11 49.3L218.521 49.5853L218.719 49.3002L218.521 49.015L218.11 49.3ZM206.21 32.15V31.65H205.255L205.799 32.435L206.21 32.15ZM216.36 32.15L216.783 31.8827L216.636 31.65H216.36V32.15ZM223.76 43.85L223.338 44.1173L223.762 44.7877L224.184 44.116L223.76 43.85ZM231.11 32.15V31.65H230.834L230.687 31.884L231.11 32.15ZM241.31 32.15L241.721 32.435L242.266 31.65H241.31V32.15ZM229.41 49.3L228.999 49.015L228.801 49.3002L229 49.5853L229.41 49.3ZM241.71 66.5H231.51V67.5H241.71V66.5ZM231.931 66.7295L224.181 54.6795L223.34 55.2205L231.09 67.2705L231.931 66.7295ZM223.34 54.6783L215.54 66.7283L216.38 67.2717L224.18 55.2217L223.34 54.6783ZM215.96 66.5H205.81V67.5H215.96V66.5ZM206.221 67.2853L218.521 49.5853L217.7 49.0147L205.4 66.7147L206.221 67.2853ZM218.521 49.015L206.621 31.865L205.799 32.435L217.699 49.585L218.521 49.015ZM206.21 32.65H216.36V31.65H206.21V32.65ZM215.938 32.4173L223.338 44.1173L224.183 43.5827L216.783 31.8827L215.938 32.4173ZM224.184 44.116L231.534 32.416L230.687 31.884L223.337 43.584L224.184 44.116ZM231.11 32.65H241.31V31.65H231.11V32.65ZM240.899 31.865L228.999 49.015L229.821 49.585L241.721 32.435L240.899 31.865ZM229 49.5853L241.3 67.2853L242.121 66.7147L229.821 49.0147L229 49.5853Z" fill="black"/>
<path d="M5.3033 70.3866C2.37437 67.4576 2.37437 62.7089 5.3033 59.78L42.78 22.3033C45.7089 19.3744 50.4576 19.3744 53.3866 22.3033C56.3155 25.2322 56.3155 29.981 53.3866 32.9099L15.9099 70.3866C12.981 73.3155 8.23223 73.3155 5.3033 70.3866Z" fill="#353CAC"/>
<path d="M5.30339 22.3033C8.23232 19.3744 12.9811 19.3744 15.91 22.3033L53.3866 59.78C56.3156 62.7089 56.3156 67.4577 53.3866 70.3866C50.4577 73.3155 45.709 73.3155 42.78 70.3866L5.30339 32.9099C2.37446 29.981 2.37446 25.2323 5.30339 22.3033Z" fill="#353CAC"/>
<path fill-rule="evenodd" clip-rule="evenodd" d="M8.40549 25.0544C9.39439 24.0908 10.9772 24.1114 11.9407 25.1003L31.2807 44.9492C32.0374 45.7258 32.0374 46.964 31.2807 47.7407L11.9407 67.5896C10.9772 68.5785 9.39439 68.5991 8.40549 67.6355C7.41658 66.672 7.39602 65.0892 8.35957 64.1003L24.2997 47.7407C25.0564 46.964 25.0564 45.7258 24.2997 44.9492L8.35957 28.5896C7.39602 27.6007 7.41658 26.0179 8.40549 25.0544Z" fill="white"/>
<path fill-rule="evenodd" clip-rule="evenodd" d="M34.4683 16.6598C34.5291 13.3704 37.2449 10.7531 40.5342 10.8138L56.4603 11.1079C61.1246 11.194 64.8706 14.9813 64.9057 19.6462L65.0253 35.5746C65.05 38.8644 62.4031 41.5514 59.1133 41.5761C55.8235 41.6008 53.1365 38.9539 53.1118 35.6641L53.0164 22.9602L40.3143 22.7256C37.0249 22.6649 34.4076 19.9491 34.4683 16.6598Z" fill="#353CAC"/>
</svg>
